HIERARCHY
ROOT joint_Root
{
	OFFSET 0.0 0.0 0.0
	CHANNELS 6 Xposition Yposition Zposition Zrotation Xrotation Yrotation 
	JOINT Hips
	{
		OFFSET -0.726466 93.3139 -2.00062
		CHANNELS 6 Xposition Yposition Zposition Zrotation Xrotation Yrotation 
		JOINT Spine
		{
			OFFSET 15.7357 0.0 0.0
			CHANNELS 6 Xposition Yposition Zposition Zrotation Xrotation Yrotation 
			JOINT Chest
			{
				OFFSET 8.98455 -0.406207 0.0
				CHANNELS 6 Xposition Yposition Zposition Zrotation Xrotation Yrotation 
				JOINT Neck
				{
					OFFSET 16.3773 0.0 0.0
					CHANNELS 6 Xposition Yposition Zposition Zrotation Xrotation Yrotation 
					JOINT Head
					{
						OFFSET 6.45672 0.0 0.0
						CHANNELS 6 Xposition Yposition Zposition Zrotation Xrotation Yrotation 
						End Site
						{
							OFFSET 0.0 0.0 0.0
						}
					}
				}
				JOINT Shoulder_L
				{
					OFFSET 12.9942 -0.242716 4.98039
					CHANNELS 6 Xposition Yposition Zposition Zrotation Xrotation Yrotation 
					JOINT UpperArm_L
					{
						OFFSET 5.34809 0.0 0.0
						CHANNELS 6 Xposition Yposition Zposition Zrotation Xrotation Yrotation 
						JOINT LowerArm_L
						{
							OFFSET 24.3286 1.87007e-05 0.0
							CHANNELS 6 Xposition Yposition Zposition Zrotation Xrotation Yrotation 
							JOINT Hand_L
							{
								OFFSET 22.2916 0.0 0.0
								CHANNELS 6 Xposition Yposition Zposition Zrotation Xrotation Yrotation 
								End Site
								{
									OFFSET 0.0 0.0 0.0
								}
							}
						}
					}
				}
				JOINT Shoulder_R
				{
					OFFSET 12.9945 -0.242716 -4.98039
					CHANNELS 6 Xposition Yposition Zposition Zrotation Xrotation Yrotation 
					JOINT UpperArm_R
					{
						OFFSET -5.34813 0.0 0.0
						CHANNELS 6 Xposition Yposition Zposition Zrotation Xrotation Yrotation 
						JOINT LowerArm_R
						{
							OFFSET -24.3289 0.000322201 0.0
							CHANNELS 6 Xposition Yposition Zposition Zrotation Xrotation Yrotation 
							JOINT Hand_R
							{
								OFFSET -22.2915 -0.000108084 0.0
								CHANNELS 6 Xposition Yposition Zposition Zrotation Xrotation Yrotation 
								End Site
								{
									OFFSET 0.0 0.0 0.0
								}
							}
						}
					}
				}
			}
		}
		JOINT UpperLeg_L
		{
			OFFSET -2.19248 -6.46944 0.0
			CHANNELS 6 Xposition Yposition Zposition Zrotation Xrotation Yrotation 
			JOINT LowerLeg_L
			{
				OFFSET 39.0811 0.0 -1.23785e-05
				CHANNELS 6 Xposition Yposition Zposition Zrotation Xrotation Yrotation 
				JOINT Foot_L
				{
					OFFSET 40.9854 0.0 -1.26872e-05
					CHANNELS 6 Xposition Yposition Zposition Zrotation Xrotation Yrotation 
					JOINT Toes_L
					{
						OFFSET 11.7543 0.0 0.0
						CHANNELS 6 Xposition Yposition Zposition Zrotation Xrotation Yrotation 
						End Site
						{
							OFFSET 0.0 0.0 0.0
						}
					}
				}
			}
		}
		JOINT UpperLeg_R
		{
			OFFSET -2.19251 6.46944 0.0
			CHANNELS 6 Xposition Yposition Zposition Zrotation Xrotation Yrotation 
			JOINT LowerLeg_R
			{
				OFFSET -39.0811 -0.00228153 -0.0401928
				CHANNELS 6 Xposition Yposition Zposition Zrotation Xrotation Yrotation 
				JOINT Foot_R
				{
					OFFSET -40.9854 0.0 0.0
					CHANNELS 6 Xposition Yposition Zposition Zrotation Xrotation Yrotation 
					JOINT Toes_R
					{
						OFFSET -11.7543 0.0 0.0
						CHANNELS 6 Xposition Yposition Zposition Zrotation Xrotation Yrotation 
						End Site
						{
							OFFSET 0.0 0.0 0.0
						}
					}
				}
			}
		}
	}
}
MOTION
Frames:	4
Frame Time:	0.0333333
0.000000 0.000000 0.000000 0.000000 0.000000 -0.000000 2.985730 89.757200 33.515600 -85.312900 -2.680010 -173.815000 15.735700 0.000005 -0.000001 79.481400 82.712700 -76.705200 8.984550 -0.406207 -0.000000 6.640400 -2.679520 5.702600 16.377300 -0.000001 -0.000001 3.680980 -3.213410 -0.048699 6.456720 -0.000001 -0.000000 -0.030891 -0.183384 0.241168 12.994200 -0.242716 4.980390 -89.586800 -1.481050 -74.410000 5.348090 -0.000007 -0.000001 -70.457700 33.414500 -18.242900 24.328600 0.000019 0.000005 1.399110 3.348050 -22.719800 22.291600 -0.000001 0.000005 5.623710 5.449530 -4.610450 12.994500 -0.242716 -4.980390 87.520900 6.589950 -69.330300 -5.348130 -0.000001 -0.000004 -67.619700 28.200300 -10.344000 -24.328900 0.000322 -0.000009 2.177490 10.364100 -11.941400 -22.291500 -0.000108 -0.000004 8.636070 5.293920 0.244135 -2.192480 -6.469440 -0.000000 -170.931000 -3.709450 -5.972180 39.081100 -0.000007 -0.000012 0.087189 -0.040382 65.145700 40.985400 -0.000006 -0.000013 2.966470 -6.690960 -41.482400 11.754300 -0.000000 0.000003 -0.006392 -0.074367 -19.603700 -2.192510 6.469440 -0.000001 -173.421000 12.371800 164.039000 -39.081100 -0.002282 -0.040193 0.014385 -0.016474 33.951500 -40.985400 0.000008 0.000006 6.368320 -4.662820 -62.756700 -11.754300 -0.000006 -0.000006 -0.011393 -0.113768 -21.210200
0.000000 0.000000 0.000000 0.000000 0.000000 -0.000000 3.150310 90.287100 30.276200 -86.067000 -1.742700 -173.449000 15.735700 0.000005 -0.000001 84.973400 82.599800 -82.578000 8.984550 -0.406207 -0.000000 7.010810 -1.308040 4.865950 16.377300 -0.000001 -0.000001 3.772110 -3.241820 0.351206 6.456720 -0.000001 -0.000000 -0.038648 -1.053230 0.661914 12.994200 -0.242716 4.980390 -89.564100 -1.513600 -73.934000 5.348090 -0.000007 -0.000001 -72.020400 33.685400 -15.986600 24.328600 0.000019 0.000005 2.410770 6.829410 -19.508300 22.291600 -0.000001 0.000005 3.932700 5.417820 -3.521690 12.994500 -0.242716 -4.980390 87.516400 6.835820 -69.977200 -5.348130 -0.000001 -0.000004 -64.925700 29.794400 -14.927900 -24.328900 0.000322 -0.000009 2.316220 9.251980 -14.130300 -22.291500 -0.000108 -0.000004 9.309380 5.313750 -0.314985 -2.192480 -6.469440 -0.000000 -172.014000 -5.797350 -10.309000 39.081100 -0.000007 -0.000012 0.073820 -0.027758 69.388900 40.985400 -0.000006 -0.000013 5.229480 -8.032460 -45.354000 11.754300 -0.000000 0.000003 -0.005861 -0.069573 -19.408200 -2.192510 6.469440 -0.000001 -174.480000 12.281100 167.662000 -39.081100 -0.002282 -0.040193 0.028818 -0.039868 32.625200 -40.985400 0.000008 0.000006 6.547490 -3.937890 -64.564500 -11.754300 -0.000006 -0.000006 -0.011201 -0.112402 -21.154300
0.000000 0.000000 0.000000 0.000000 0.000000 -0.000000 3.174530 90.794400 27.328200 -86.992600 -0.436487 -173.671000 15.735700 0.000005 -0.000001 89.464700 82.588100 -87.599300 8.984550 -0.406207 -0.000000 7.062270 -0.149407 3.736000 16.377300 -0.000001 -0.000001 3.945950 -2.670020 0.683278 6.456720 -0.000001 -0.000000 0.028128 -1.739690 0.881235 12.994200 -0.242716 4.980390 -89.399200 -1.960540 -72.960400 5.348090 -0.000007 -0.000001 -73.920300 32.567100 -13.076900 24.328600 0.000019 0.000005 3.031420 9.550230 -17.703800 22.291600 -0.000001 0.000005 3.315580 5.399280 -2.914620 12.994500 -0.242716 -4.980390 87.642700 6.912780 -71.118000 -5.348130 -0.000001 -0.000004 -62.257700 30.688600 -19.816700 -24.328900 0.000322 -0.000009 2.414180 8.328070 -16.237500 -22.291500 -0.000108 -0.000004 10.152000 5.334550 -0.917687 -2.192480 -6.469440 -0.000000 -173.549000 -8.187020 -14.804300 39.081100 -0.000007 -0.000012 0.076066 -0.027300 70.253100 40.985400 -0.000006 -0.000013 5.247850 -9.321360 -47.473200 11.754300 -0.000000 0.000003 -0.005440 -0.065670 -19.249000 -2.192510 6.469440 -0.000001 -175.804000 12.675100 170.684000 -39.081100 -0.002282 -0.040193 0.027842 -0.041178 30.794400 -40.985400 0.000008 0.000006 6.637590 -2.276350 -65.924500 -11.754300 -0.000006 -0.000006 -0.010614 -0.108168 -20.980900
0.000000 0.000000 0.000000 0.000000 0.000000 -0.000000 3.160850 91.229200 24.464400 -87.785900 0.788153 -173.946000 15.735700 0.000005 -0.000001 93.748300 82.511600 -92.294100 8.984550 -0.406207 -0.000000 7.168910 0.968057 2.844780 16.377300 -0.000001 -0.000001 3.964880 -2.236740 0.807882 6.456720 -0.000001 -0.000000 0.111600 -2.270210 0.551638 12.994200 -0.242716 4.980390 -89.286300 -2.229660 -72.245200 5.348090 -0.000007 -0.000001 -75.568300 30.558600 -10.024900 24.328600 0.000019 0.000005 2.833050 9.460330 -16.755200 22.291600 -0.000001 0.000005 3.540350 5.393410 -2.724600 12.994500 -0.242716 -4.980390 87.903500 6.501590 -72.084900 -5.348130 -0.000001 -0.000004 -59.695500 30.681600 -24.952800 -24.328900 0.000322 -0.000009 2.442540 7.419130 -18.288800 -22.291500 -0.000108 -0.000004 10.670000 5.341160 -1.113820 -2.192480 -6.469440 -0.000000 -175.203000 -9.944850 -18.515600 39.081100 -0.000007 -0.000012 0.061697 -0.025042 67.903300 40.985400 -0.000006 -0.000013 5.728290 -9.050700 -49.892700 11.754300 -0.000000 0.000003 -0.004528 -0.056826 -18.888600 -2.192510 6.469440 -0.000001 -177.053000 13.165900 173.682000 -39.081100 -0.002282 -0.040193 0.048872 -0.083362 28.661900 -40.985400 0.000008 0.000006 7.195130 -0.617856 -67.074800 -11.754300 -0.000006 -0.000006 -0.010168 -0.104886 -20.846700
